<svg xmlns="http://www.w3.org/2000/svg" width="22" height="24" viewBox="0 0 22 23" fill="none"><style>.a{fill:#fd6f29;}</style><path d="M21.1 3.8H5.3L3.7 0H0V1.9H2.5L6.4 11.5C5.3 12 4.5 13.1 4.6 14.5 4.8 16 6.1 17 7.5 17H20.3V15.1H7.4c-0.6 0-0.9-0.4-0.9-0.9 0-0.6 0.4-0.9 0.9-0.9H19.6c0.5 0 0.8-0.3 0.9-0.8L22 4.9C22.1 4.3 21.6 3.8 21.1 3.8Z" class="a"/><path d="m5 20.5c0-1.4 1.1-2.5 2.5-2.5 1.4 0 2.5 1.1 2.5 2.5 0 1.4-1.1 2.5-2.5 2.5-1.4 0-2.5-1.1-2.5-2.5zm1.3 0c0 0.7 0.5 1.2 1.2 1.2 0.7 0 1.2-0.5 1.2-1.2 0-0.7-0.5-1.2-1.2-1.2-0.7 0-1.2 0.5-1.2 1.2z" class="a"/><path d="m15.2 20.5c0-1.4 1.1-2.5 2.5-2.5 1.4 0 2.5 1.1 2.5 2.5 0 1.4-1.1 2.5-2.5 2.5-1.4 0-2.5-1.1-2.5-2.5zm1.3 0c0 0.7 0.5 1.2 1.2 1.2 0.7 0 1.2-0.5 1.2-1.2 0-0.7-0.5-1.2-1.2-1.2-0.7 0-1.2 0.5-1.2 1.2z" class="a"/></svg>